#!OML:ASF F:\VICON\USERDATA\INSTALL\rory3\rory3.ASF
:FULLY-SPECIFIED
:DEGREES
371
root 0.71341 15.9269 17.8726 2.36615 0.959526 0.730069
lowerback 12.4055 1.36386 -5.49573
upperback -4.94893 1.01462 1.2155
thorax -12.595 0.98958 4.21646
lowerneck -9.16062 -6.90484 -4.36755
upperneck 18.7891 -9.71954 4.59156
head 7.73707 -4.54381 1.28448
rclavicle 1.18525e-014 3.37934e-015
rhumerus -33.468 5.9865 -87.0878
rradius 30.117
rwrist 2.43648
rhand -9.52154 20.2704
rfingers 7.12502
rthumb 16.4443 -9.05259
lclavicle 1.18525e-014 3.37934e-015
lhumerus -43.7777 12.4382 77.9939
lradius 22.5846
lwrist -2.57789
lhand -4.55329 18.8178
lfingers 7.12502
lthumb 21.2226 47.676
rfemur 21.7821 15.3478 25.8628
rtibia -1.27222e-014
rfoot -14.2904 -12.2578
rtoes -0.725757
lfemur -33.4802 -19.6372 -11.2437
ltibia 26.3959
lfoot -9.99794 11.3997
ltoes 0.819657
372
root 0.761322 15.908 18.0293 2.28732 0.791821 0.795109
lowerback 12.2023 1.36129 -5.55244
upperback -4.91707 1.0154 1.23039
thorax -12.4371 0.989947 4.26558
lowerneck -9.43166 -6.93943 -4.30945
upperneck 19.1303 -9.76394 4.46647
head 7.89118 -4.56177 1.21576
rclavicle -4.24902e-015 -9.93923e-016
rhumerus -33.5839 6.16358 -87.1976
rradius 29.9917
rwrist 2.48304
rhand -9.58452 20.1151
rfingers 7.12502
rthumb 16.3837 -9.21291
lclavicle -4.24902e-015 -9.93923e-016
lhumerus -43.9336 12.468 77.9366
lradius 22.443
lwrist -2.64367
lhand -4.42206 18.9655
lfingers 7.12502
lthumb 21.3486 47.8095
rfemur 22.5029 15.2105 25.6843
rtibia 2.22639e-014
rfoot -13.9237 -11.9727
rtoes -1.67426
lfemur -33.1978 -19.4271 -11.6659
ltibia 26.7479
lfoot -9.0203 10.3711
ltoes 7.44549
373
root 0.812126 15.893 18.1864 2.15915 0.650004 1.00529
lowerback 12.1408 1.37089 -5.7276
upperback -4.88176 1.00433 1.24778
thorax -12.3643 0.996678 4.38722
lowerneck -9.51298 -6.96729 -4.41664
upperneck 19.2838 -9.79246 4.47229
head 7.96411 -4.57845 1.22655
rclavicle 6.5102e-015 -3.37934e-015
rhumerus -33.7376 6.40701 -87.2066
rradius 29.9184
rwrist 2.34341
rhand -9.62423 20.3865
rfingers 7.12502
rthumb 16.3455 -8.94472
lclavicle 6.5102e-015 -3.37934e-015
lhumerus -44.0668 12.716 77.8616
lradius 22.2013
lwrist -2.92215
lhand -4.48947 18.5814
lfingers 7.12502
lthumb 21.2839 47.4327
rfemur 23.2818 15.044 25.3544
rtibia -1.90833e-014
rfoot -13.4719 -11.8062
rtoes -2.8634
lfemur -32.8622 -19.2651 -12.2687
ltibia 27.2054
lfoot -8.8091 9.26702
ltoes 20.4863
374
root 0.866018 15.8755 18.3393 2.0085 0.600666 1.25273
lowerback 12.2576 1.35483 -5.87501
upperback -4.87786 0.947439 1.22647
thorax -12.428 0.982367 4.46036
lowerneck -9.4063 -6.94571 -4.33503
upperneck 19.2822 -9.75781 4.36221
head 7.9326 -4.56876 1.1856
rclavicle -3.10601e-015 -3.18055e-015
rhumerus -33.8879 6.73389 -87.2725
rradius 29.8031
rwrist 2.11223
rhand -9.44488 20.5501
rfingers 7.12502
rthumb 16.5182 -8.76675
lclavicle -3.10601e-015 -3.18055e-015
lhumerus -44.1604 12.7664 77.8708
lradius 21.9827
lwrist -2.93695
lhand -4.70059 18.2683
lfingers 7.12502
lthumb 21.0811 47.1424
rfemur 24.0342 14.7927 24.9661
rtibia 6.04305e-014
rfoot -12.914 -11.6299
rtoes -4.21934
lfemur -32.5492 -19.0658 -12.921
ltibia 27.702
lfoot -8.79562 8.29834
ltoes 30.5685
375
root 0.916102 15.8589 18.4922 1.85496 0.523068 1.23799
lowerback 12.3814 1.34251 -5.82061
upperback -4.87205 0.937894 1.2712
thorax -12.4945 0.97781 4.48121
lowerneck -9.95991 -7.01201 -4.10874
upperneck 19.8494 -9.81852 3.95087
head 8.19076 -4.60071 0.980866
rclavicle 7.7526e-015 1.43125e-014
rhumerus -33.9602 6.54405 -87.1885
rradius 29.5051
rwrist 2.45909
rhand -9.18943 20.5148
rfingers 7.12502
rthumb 16.7641 -8.78149
lclavicle 7.7526e-015 1.43125e-014
lhumerus -44.2008 12.9409 77.7553
lradius 21.6308
lwrist -3.00248
lhand -4.9438 18.2547
lfingers 7.12502
lthumb 20.8474 47.1546
rfemur 20.9667 14.5533 24.8738
rtibia 6.68793
rfoot -15.154 -11.0908
rtoes -6.29224
lfemur -32.2074 -18.5156 -13.3888
ltibia 28.2401
lfoot -8.27456 7.84748
ltoes 33.3666
376
root 0.964983 15.8485 18.6448 1.73632 0.499683 1.53457
lowerback 12.3276 1.31093 -6.09754
upperback -4.78593 0.84955 1.24989
thorax -12.3595 0.950602 4.63554
lowerneck -9.8426 -6.97499 -4.16061
upperneck 19.6371 -9.75617 3.98223
head 8.10012 -4.57746 1.01354
rclavicle -4.57205e-015 4.96962e-015
rhumerus -33.8339 6.32983 -87.0801
rradius 28.9907
rwrist 2.94893
rhand -9.26687 20.5688
rfingers 7.12502
rthumb 16.6895 -8.73376
lclavicle -4.57205e-015 4.96962e-015
lhumerus -44.1889 13.3283 77.549
lradius 21.3504
lwrist -3.38738
lhand -4.68856 18.3969
lfingers 7.12502
lthumb 21.0926 47.2696
rfemur 19.4617 14.2722 24.3982
rtibia 10.4931
rfoot -16.1494 -10.5747
rtoes -7.10434
lfemur -31.7198 -17.6183 -14.3542
ltibia 28.7044
lfoot -7.50482 7.39879
ltoes 33.5433
377
root 1.01944 15.8419 18.7973 1.72246 0.620846 1.99622
lowerback 12.2227 1.25486 -6.38575
upperback -4.78193 0.718229 1.13887
thorax -12.2801 0.902807 4.70635
lowerneck -9.86751 -7.00265 -4.34515
upperneck 19.6784 -9.80429 4.17253
head 8.14054 -4.59448 1.09793
rclavicle -3.3048e-015 7.95139e-015
rhumerus -33.9704 6.19586 -87.0303
rradius 28.7012
rwrist 3.28322
rhand -9.36333 20.5041
rfingers 7.12502
rthumb 16.5967 -8.80626
lclavicle -3.3048e-015 7.95139e-015
lhumerus -44.2307 13.3107 77.538
lradius 21.2895
lwrist -3.61335
lhand -4.22405 18.7998
lfingers 7.12502
lthumb 21.5388 47.6221
rfemur 18.1248 13.4692 23.4862
rtibia 13.7489
rfoot -16.4753 -9.67723
rtoes -7.4788
lfemur -31.377 -16.6252 -15.534
ltibia 29.1816
lfoot -6.40689 6.7777
ltoes 32.7907
378
root 1.07226 15.8352 18.9455 1.6878 0.801238 2.49372
lowerback 12.3277 1.1987 -6.68459
upperback -4.88929 0.563989 0.999906
thorax -12.4525 0.855549 4.75791
lowerneck -9.92326 -7.12741 -4.53488
upperneck 19.8942 -9.96683 4.22349
head 8.2437 -4.67633 1.12134
rclavicle -1.18028e-014 -1.55052e-014
rhumerus -34.3964 5.70907 -86.9129
rradius 28.5553
rwrist 3.78232
rhand -9.48664 20.5598
rfingers 7.12502
rthumb 16.478 -8.76043
lclavicle -1.18028e-014 -1.55052e-014
lhumerus -44.3084 13.6774 77.1642
lradius 20.8409
lwrist -4.3272
lhand -4.0793 18.894
lfingers 7.12502
lthumb 21.6778 47.7004
rfemur 16.8815 12.4503 22.4949
rtibia 16.8306
rfoot -16.387 -8.94336
rtoes -10.183
lfemur -30.9785 -15.8099 -16.658
ltibia 29.5283
lfoot -5.65745 5.92276
ltoes 35.7107
379
root 1.12339 15.8282 19.0942 1.59868 0.950279 2.67136
lowerback 12.3915 1.14968 -6.69228
upperback -4.92507 0.488499 0.980451
thorax -12.5219 0.823034 4.75847
lowerneck -9.62597 -7.10901 -4.60678
upperneck 19.8122 -9.91817 4.14681
head 8.15978 -4.67304 1.1255
rclavicle 1.43622e-014 -1.07344e-014
rhumerus -34.7576 4.87567 -86.5724
rradius 28.2918
rwrist 4.63816
rhand -9.66464 20.874
rfingers 7.12502
rthumb 16.3066 -8.46034
lclavicle 1.43622e-014 -1.07344e-014
lhumerus -44.2872 14.1188 76.8474
lradius 20.3577
lwrist -5.03528
lhand -3.99486 18.9358
lfingers 7.12502
lthumb 21.7589 47.7328
rfemur 15.788 11.4992 21.8702
rtibia 19.6982
rfoot -16.0774 -8.25008
rtoes -12.5477
lfemur -30.5764 -15.1091 -17.3769
ltibia 29.9023
lfoot -4.86333 5.23157
ltoes 37.2433
380
root 1.18026 15.8246 19.2462 1.55293 1.09282 3.01528
lowerback 12.2697 1.09012 -6.79263
upperback -4.90629 0.38955 0.887874
thorax -12.4134 0.774917 4.73463
lowerneck -9.35978 -7.01387 -4.53088
upperneck 19.7433 -9.77988 4.02991
head 8.07171 -4.61919 1.10168
rclavicle 4.99446e-015 -1.39149e-014
rhumerus -35.1147 4.15253 -86.2972
rradius 28.1038
rwrist 5.4007
rhand -9.79906 20.8724
rfingers 7.12502
rthumb 16.1771 -8.47257
lclavicle 4.99446e-015 -1.39149e-014
lhumerus -44.1256 14.28 76.7065
lradius 19.8733
lwrist -5.43692
lhand -3.94868 18.7633
lfingers 7.12502
lthumb 21.8032 47.5552
rfemur 14.7354 10.493 20.941
rtibia 22.4184
rfoot -15.4312 -7.36781
rtoes -14.1099
lfemur -30.2984 -14.5572 -18.3144
ltibia 30.3661
lfoot -3.95114 4.80887
ltoes 35.6574
381
root 1.23388 15.8181 19.3969 1.56369 1.23811 3.18774
lowerback 12.1269 1.02223 -6.73962
upperback -4.95528 0.308833 0.820948
thorax -12.3695 0.728648 4.64789
lowerneck -8.98254 -6.97161 -4.4444
upperneck 19.5882 -9.72854 3.96918
head 7.94185 -4.60374 1.09016
rclavicle 2.48481e-016 1.98785e-015
rhumerus -35.6213 3.37433 -86.0202
rradius 27.9095
rwrist 6.22706
rhand -9.95175 20.9836
rfingers 7.12502
rthumb 16.0301 -8.37322
lclavicle 2.48481e-016 1.98785e-015
lhumerus -44.0983 14.5044 76.4511
lradius 19.5446
lwrist -6.03174
lhand -4.00478 18.9925
lfingers 7.12502
lthumb 21.7494 47.7905
rfemur 13.6565 9.4444 20.17
rtibia 24.9895
rfoot -14.2289 -6.61954
rtoes -17.0762
lfemur -30.1365 -13.9954 -19.0617
ltibia 31.0176
lfoot -3.07738 4.25355
ltoes 33.3763
382
root 1.28264 15.8153 19.547 1.50068 1.27238 3.01026
lowerback 12.0183 0.956947 -6.4611
upperback -4.9277 0.289622 0.925396
thorax -12.2635 0.698164 4.60921
lowerneck -8.82919 -6.95148 -4.46516
upperneck 19.4784 -9.67724 3.87571
head 7.87167 -4.59382 1.07584
rclavicle 2.31087e-015 7.15625e-015
rhumerus -35.8963 2.59705 -85.6313
rradius 27.555
rwrist 7.16
rhand -10.7858 21.6621
rfingers 7.12502
rthumb 15.2268 -7.75754
lclavicle 2.31087e-015 7.15625e-015
lhumerus -44.0067 15.0213 76.1897
lradius 19.187
lwrist -6.57225
lhand -4.13711 18.9152
lfingers 7.12502
lthumb 21.6223 47.728
rfemur 12.5015 8.60301 19.8526
rtibia 27.608
rfoot -12.8896 -5.83454
rtoes -17.2813
lfemur -29.8166 -13.3529 -19.3515
ltibia 31.6683
lfoot -2.72848 3.49741
ltoes 35.4273
383
root 1.33393 15.8189 19.7006 1.32299 1.35104 2.97047
lowerback 11.8741 0.900745 -6.2477
upperback -4.78179 0.268666 0.962687
thorax -12.001 0.66016 4.53213
lowerneck -8.93142 -6.94718 -4.39246
upperneck 19.4649 -9.64586 3.71811
head 7.87218 -4.58632 1.01292
rclavicle -2.5345e-015 1.94809e-014
rhumerus -36.0913 1.92938 -85.3199
rradius 27.2902
rwrist 7.6698
rhand -11.8761 22.4584
rfingers 7.12502
rthumb 14.1764 -7.03784
lclavicle -2.5345e-015 1.94809e-014
lhumerus -43.6592 15.762 75.7382
lradius 18.519
lwrist -7.52433
lhand -4.23839 18.307
lfingers 7.12502
lthumb 21.525 47.1309
rfemur 11.4383 7.77354 19.3805
rtibia 30.287
rfoot -11.5912 -4.89703
rtoes -13.094
lfemur -29.3384 -12.8849 -19.8353
ltibia 32.3121
lfoot -2.61099 2.93371
ltoes 34.0464
384
root 1.38689 15.8304 19.8521 1.1423 1.44641 3.20349
lowerback 11.8592 0.888161 -6.18275
upperback -4.68685 0.252972 0.842785
thorax -11.8783 0.63493 4.36538
lowerneck -9.05377 -6.98932 -4.32383
upperneck 19.5564 -9.69652 3.62329
head 7.91828 -4.61076 0.960047
rclavicle 1.30452e-014 -3.18055e-015
rhumerus -36.3634 1.17416 -85.0406
rradius 27.0426
rwrist 7.97563
rhand -12.22 22.7829
rfingers 7.12502
rthumb 13.845 -6.73634
lclavicle 1.30452e-014 -3.18055e-015
lhumerus -43.3149 15.9185 75.5672
lradius 18.203
lwrist -7.97885
lhand -4.1295 18.209
lfingers 7.12502
lthumb 21.6296 47.0209
rfemur 10.1992 6.87866 18.5533
rtibia 33.0594
rfoot -9.86543 -4.08931
rtoes -10.2634
lfemur -28.7998 -12.6873 -20.5743
ltibia 32.7989
lfoot -2.69641 2.64151
ltoes 31.4399
385
root 1.43829 15.8428 19.9929 0.964347 1.41634 3.18628
lowerback 12.181 0.857116 -6.02638
upperback -4.8291 0.217897 0.895065
thorax -12.229 0.624328 4.34509
lowerneck -8.71711 -6.9579 -4.48358
upperneck 19.5493 -9.63771 3.61502
head 7.86083 -4.60161 1.00164
rclavicle 1.11816e-015 -1.07344e-014
rhumerus -37.1065 0.821395 -84.798
rradius 26.9969
rwrist 7.96476
rhand -11.3208 22.0807
rfingers 7.12502
rthumb 14.7115 -7.37728
lclavicle 1.11816e-015 -1.07344e-014
lhumerus -43.5736 15.6446 75.7418
lradius 18.3983
lwrist -7.72632
lhand -4.07481 18.7971
lfingers 7.12502
lthumb 21.6821 47.603
rfemur 8.66408 6.09608 18.0314
rtibia 35.8946
rfoot -7.59556 -3.95033
rtoes -10.6985
lfemur -28.2602 -12.593 -20.968
ltibia 33.0895
lfoot -2.85206 2.63247
ltoes 27.5355
